<svg width="122" height="30" viewBox="0 0 122 30" fill="none" xmlns="http://www.w3.org/2000/svg">
<path d="M47.4826 7.29652C47.2962 7.22176 47.1343 7.20819 47.0186 7.2136C46.8414 6.95789 46.4512 6.51184 45.8449 6.45354L45.8448 6.45353C44.3944 6.31528 42.9386 7.08007 41.86 7.85879C41.3178 8.25023 40.8647 8.64978 40.5471 8.95138C40.3882 9.10226 40.2631 9.22884 40.1774 9.3179C40.1346 9.36244 40.1017 9.39761 40.0793 9.42178L40.0538 9.44956L40.0472 9.45688L40.0454 9.45883L40.045 9.45936L40.0448 9.45952C40.0448 9.45957 40.0447 9.45961 40.1379 9.54291L40.0447 9.45961L40.182 9.65976L40.182 9.65987L40.182 9.65987L40.1821 9.65986L40.1821 9.65983L40.1827 9.6596L40.1855 9.65859L40.1969 9.65441C40.2071 9.6507 40.2225 9.64518 40.2427 9.63813C40.2832 9.62402 40.343 9.60379 40.4195 9.57963C40.5726 9.53127 40.7923 9.46724 41.0574 9.40493C41.5253 9.29498 42.1311 9.19128 42.7608 9.18708C42.0803 9.98742 41.3019 10.6234 40.6752 11.0687C40.3367 11.3092 40.0433 11.4936 39.8349 11.6176C39.7307 11.6796 39.6478 11.7265 39.5912 11.7578C39.5628 11.7734 39.5411 11.7851 39.5266 11.7929L39.5102 11.8015L39.5063 11.8036L39.5053 11.8041L39.5052 11.8042L39.5051 11.8042L39.1325 11.9965L39.5497 12.0396L39.5625 11.9153L39.5497 12.0396L39.5498 12.0396L39.5499 12.0396L39.5504 12.0397L39.5519 12.0398L39.5576 12.0404L39.5791 12.0423C39.5977 12.0439 39.6251 12.046 39.6604 12.0483C39.7312 12.0529 39.8343 12.0581 39.9647 12.0609C40.1802 12.0654 40.4707 12.0631 40.8143 12.0397C40.3768 12.9389 40.1266 14.0052 40.1266 15.1896C40.1266 17.3903 40.7677 19.0941 41.8034 20.3636C42.8382 21.6319 44.26 22.4585 45.8094 22.9186C46.1147 23.0093 46.2813 23.127 46.4449 23.2427C46.4722 23.2619 46.4994 23.2812 46.5271 23.3002C46.6255 23.3677 46.7314 23.4328 46.8678 23.481C47.0042 23.5291 47.1652 23.5584 47.3742 23.5622L47.3759 23.5622L47.4432 23.5625H47.4437C48.5617 23.5625 50.4229 23.1094 51.4267 22.7359L51.4268 22.7359C52.8511 22.2059 54.1363 21.3589 55.0654 20.121C55.9953 18.8821 56.5625 17.2594 56.5625 15.1893C56.5622 11.616 53.8426 9.16844 50.7186 9.16844C50.0332 9.16844 49.3295 9.28879 48.6316 9.53799C48.6392 9.51446 48.6474 9.49079 48.6562 9.46557C48.6692 9.42829 48.6834 9.38763 48.6984 9.33905C48.7492 9.1744 48.7924 8.95898 48.7924 8.55741C48.7924 8.16095 48.4977 7.92852 48.2088 7.88765C47.9604 7.5626 47.7072 7.38659 47.4826 7.29652ZM47.1217 7.75668C47.2525 7.76766 47.4606 7.82948 47.6964 8.0705C47.6252 8.1599 47.5839 8.27792 47.5839 8.42044C47.5839 8.72985 47.5136 8.94988 47.4342 9.13562C47.4095 9.19344 47.3865 9.24239 47.3634 9.29156C47.3463 9.32794 47.3292 9.36445 47.3112 9.40477C47.2922 9.44756 47.2739 9.49127 47.258 9.53626C47.0242 9.4429 46.7848 9.36432 46.5412 9.30098C46.927 8.75558 47.0699 8.12719 47.1217 7.75668Z" fill="#FEC672" stroke="#FEC672" stroke-width="0.25"/>
<path d="M50.7186 9.29344C49.9792 9.29344 49.2167 9.43659 48.4629 9.735C48.4998 9.36825 48.6674 9.34013 48.6674 8.55741C48.6674 8.21259 48.3957 8.01881 48.1418 8.00672C47.6476 7.33144 47.1495 7.31822 46.9557 7.34466C46.8083 7.11459 46.4326 6.63563 45.833 6.57797C43.0269 6.3105 40.1379 9.54291 40.1379 9.54291C40.1379 9.54291 41.5521 9.00938 43.0227 9.06619C41.5695 10.8791 39.5625 11.9153 39.5625 11.9153C40.1962 11.6756 40.8391 11.3857 41.4663 11.0029C42.0946 10.6207 42.6914 10.1569 43.273 9.66244C43.8555 9.17475 44.4481 8.646 45.1073 8.22609C45.421 8.02397 45.7515 7.84923 46.0951 7.70381C46.4191 7.57388 46.7335 7.47741 47.0277 7.422C46.3579 7.63376 45.7233 7.9439 45.1447 8.34225C44.5322 8.76441 43.966 9.27403 43.3746 9.77466C42.7839 10.2728 42.1458 10.7644 41.4843 11.1322C41.1669 11.3102 40.8391 11.4688 40.5027 11.6073C40.1815 11.7327 39.8657 11.8402 39.5625 11.9153C39.5625 11.9153 40.154 11.9763 41.027 11.8975C40.5367 12.8178 40.2516 13.9346 40.2516 15.1896C40.2516 19.5397 42.7837 21.8898 45.8451 22.7988C46.603 23.0241 46.5839 23.4229 47.3765 23.4372L47.4437 23.4375C48.5411 23.4375 50.3867 22.9895 51.3832 22.6188C54.1968 21.5717 56.4375 19.2815 56.4375 15.1893C56.4372 11.6863 53.7749 9.29344 50.7186 9.29344ZM47.0111 7.63294C47.1622 7.61719 47.5011 7.64334 47.8712 8.07675C47.7747 8.14313 47.7089 8.25563 47.7089 8.42044C47.7089 9.08222 47.4057 9.36853 47.3402 9.70547C47.0127 9.5656 46.6731 9.45574 46.3257 9.37725C46.8255 8.77172 46.9712 7.99913 47.0111 7.63294V7.63294ZM51.0887 21.8279C50.1153 22.1902 48.3791 22.5938 47.4437 22.5938L47.3914 22.5935C47.1993 22.5898 47.1813 22.5769 47.0055 22.4523C46.8112 22.315 46.5445 22.1263 46.0852 21.9896C44.2217 21.4367 41.0953 19.8173 41.0953 15.1893C41.0953 13.8578 41.4587 12.6485 42.1191 11.7364C43.2137 11.5122 44.4897 11.0487 45.5908 10.113C46.2225 10.1707 46.8674 10.3732 47.5134 10.7216L47.7778 10.8645C48.2956 11.4731 48.686 12.1211 49.0029 12.7795C49.4591 13.7656 49.7477 14.7781 49.8695 15.785C49.9884 16.7907 49.9406 17.79 49.6723 18.7403C49.3944 19.6873 48.8755 20.5741 48.0278 21.3293C49.1313 20.9137 50.0303 20.0859 50.5355 19.0205C51.0187 18.0268 51.1463 16.9145 51.0156 15.8114C50.8792 14.7069 50.4871 13.5949 49.8149 12.5655C49.3998 11.9243 48.8615 11.2957 48.2031 10.7784L48.2936 10.7326C49.0766 10.3377 49.8925 10.1375 50.7183 10.1375C53.4973 10.1375 55.5932 12.3096 55.5935 15.1896C55.5938 19.2908 53.1441 21.0632 51.0887 21.8279" fill="#EAB25E"/>
<path d="M5.544 18.98C5.456 18.98 5.244 18.976 4.908 18.968C4.572 18.96 4.3 18.956 4.092 18.956L2.784 23.024C2.632 23.056 2.464 23.08 2.28 23.096C2.104 23.112 1.924 23.12 1.74 23.12C1.316 23.12 0.932 23.064 0.588 22.952L0.504 22.844L5.94 6.608C6.132 6.576 6.36 6.552 6.624 6.536C6.896 6.52 7.132 6.512 7.332 6.512C7.524 6.512 7.756 6.52 8.028 6.536C8.3 6.552 8.516 6.58 8.676 6.62L14.088 22.856C13.912 22.96 13.696 23.036 13.44 23.084C13.192 23.14 12.94 23.168 12.684 23.168C12.3 23.168 12.004 23.084 11.796 22.916C11.588 22.74 11.408 22.4 11.256 21.896L10.308 18.956C10.1 18.956 9.82 18.96 9.468 18.968C9.124 18.976 8.908 18.98 8.82 18.98H5.544ZM6.204 12.344L4.716 16.988C4.908 16.988 5.144 16.984 5.424 16.976C5.704 16.968 5.888 16.964 5.976 16.964H8.448C8.528 16.964 8.7 16.968 8.964 16.976C9.236 16.976 9.476 16.98 9.684 16.988L8.496 13.28C8.272 12.584 8.048 11.852 7.824 11.084C7.6 10.316 7.404 9.624 7.236 9.008H7.116C6.996 9.536 6.844 10.124 6.66 10.772C6.476 11.412 6.324 11.936 6.204 12.344ZM17.8759 10.388C17.8759 10.06 17.8759 9.768 17.8759 9.512C17.8839 9.248 17.8879 8.948 17.8879 8.612H17.8759C17.7159 8.612 17.4879 8.616 17.1919 8.624C16.9039 8.632 16.6759 8.636 16.5079 8.636H13.6159C13.5759 8.46 13.5479 8.288 13.5319 8.12C13.5239 7.944 13.5199 7.78 13.5199 7.628C13.5199 7.476 13.5239 7.316 13.5319 7.148C13.5479 6.972 13.5759 6.792 13.6159 6.608H24.5359C24.6319 6.904 24.6799 7.224 24.6799 7.568C24.6799 7.952 24.5679 8.228 24.3439 8.396C24.1279 8.556 23.7879 8.636 23.3239 8.636H21.6439C21.4839 8.636 21.2559 8.632 20.9599 8.624C20.6639 8.616 20.4359 8.612 20.2759 8.612H20.2639C20.2639 8.948 20.2639 9.248 20.2639 9.512C20.2719 9.768 20.2759 10.06 20.2759 10.388V23C20.0919 23.032 19.8919 23.056 19.6759 23.072C19.4599 23.088 19.2599 23.096 19.0759 23.096C18.8919 23.096 18.6919 23.088 18.4759 23.072C18.2599 23.056 18.0599 23.032 17.8759 23V10.388ZM36.5175 20.924C36.5175 21.74 36.3895 22.296 36.1335 22.592C35.8855 22.88 35.4735 23.024 34.8975 23.024H28.5375C28.1375 23.024 27.8055 22.896 27.5415 22.64C27.2775 22.376 27.1455 22 27.1455 21.512V6.656L27.3015 6.512H28.2135C28.7095 6.512 29.0535 6.636 29.2455 6.884C29.4455 7.132 29.5455 7.52 29.5455 8.048V21.008C29.9215 20.976 30.2895 20.956 30.6495 20.948C31.0095 20.932 31.3495 20.924 31.6695 20.924H36.5175ZM61.3851 6.62C61.6651 6.572 61.9571 6.544 62.2611 6.536C62.5731 6.52 62.8211 6.512 63.0051 6.512C63.2051 6.512 63.4411 6.52 63.7131 6.536C63.9931 6.544 64.2651 6.572 64.5291 6.62L66.9171 14.336C66.9811 14.52 67.0611 14.788 67.1571 15.14C67.2531 15.492 67.3491 15.868 67.4451 16.268C67.5491 16.66 67.6411 17.024 67.7211 17.36C67.8011 17.688 67.8531 17.924 67.8771 18.068H68.0091C68.0331 17.924 68.0851 17.688 68.1651 17.36C68.2451 17.024 68.3331 16.66 68.4291 16.268C68.5331 15.868 68.6331 15.492 68.7291 15.14C68.8251 14.788 68.9051 14.52 68.9691 14.336L71.3451 6.62C71.6411 6.572 71.9211 6.544 72.1851 6.536C72.4491 6.52 72.6771 6.512 72.8691 6.512C73.0531 6.512 73.2971 6.52 73.6011 6.536C73.9051 6.544 74.2051 6.572 74.5011 6.62L75.7731 22.964C75.5971 23.012 75.3971 23.048 75.1731 23.072C74.9491 23.096 74.7411 23.108 74.5491 23.108C74.1571 23.108 73.7971 23.08 73.4691 23.024L72.8811 13.988C72.8571 13.564 72.8331 13.068 72.8091 12.5C72.7851 11.932 72.7611 11.356 72.7371 10.772C72.7131 10.188 72.6971 9.66 72.6891 9.188H72.5571L69.1491 20.48C68.9651 20.512 68.7611 20.536 68.5371 20.552C68.3131 20.568 68.1091 20.576 67.9251 20.576C67.7411 20.576 67.5371 20.568 67.3131 20.552C67.0971 20.536 66.9051 20.512 66.7371 20.48L63.3291 9.188H63.1971C63.1811 9.66 63.1611 10.188 63.1371 10.772C63.1211 11.356 63.1011 11.932 63.0771 12.5C63.0531 13.068 63.0291 13.564 63.0051 13.988L62.4051 23.024C62.0771 23.08 61.7091 23.108 61.3011 23.108C61.1091 23.108 60.9011 23.096 60.6771 23.072C60.4611 23.048 60.2731 23.012 60.1131 22.964L61.3851 6.62ZM83.1456 18.98C83.0576 18.98 82.8456 18.976 82.5096 18.968C82.1736 18.96 81.9016 18.956 81.6936 18.956L80.3856 23.024C80.2336 23.056 80.0656 23.08 79.8816 23.096C79.7056 23.112 79.5256 23.12 79.3416 23.12C78.9176 23.12 78.5336 23.064 78.1896 22.952L78.1056 22.844L83.5416 6.608C83.7336 6.576 83.9616 6.552 84.2256 6.536C84.4976 6.52 84.7336 6.512 84.9336 6.512C85.1256 6.512 85.3576 6.52 85.6296 6.536C85.9016 6.552 86.1176 6.58 86.2776 6.62L91.6896 22.856C91.5136 22.96 91.2976 23.036 91.0416 23.084C90.7936 23.14 90.5416 23.168 90.2856 23.168C89.9016 23.168 89.6056 23.084 89.3976 22.916C89.1896 22.74 89.0096 22.4 88.8576 21.896L87.9096 18.956C87.7016 18.956 87.4216 18.96 87.0696 18.968C86.7256 18.976 86.5096 18.98 86.4216 18.98H83.1456ZM83.8056 12.344L82.3176 16.988C82.5096 16.988 82.7456 16.984 83.0256 16.976C83.3056 16.968 83.4896 16.964 83.5776 16.964H86.0496C86.1296 16.964 86.3016 16.968 86.5656 16.976C86.8376 16.976 87.0776 16.98 87.2856 16.988L86.0976 13.28C85.8736 12.584 85.6496 11.852 85.4256 11.084C85.2016 10.316 85.0056 9.624 84.8376 9.008H84.7176C84.5976 9.536 84.4456 10.124 84.2616 10.772C84.0776 11.412 83.9256 11.936 83.8056 12.344ZM106.435 14.804C106.435 15.74 106.375 16.636 106.255 17.492C106.135 18.348 105.895 19.148 105.535 19.892C105.175 20.636 104.635 21.304 103.915 21.896C103.571 22.184 103.155 22.416 102.667 22.592C102.179 22.768 101.675 22.9 101.155 22.988C100.643 23.068 100.179 23.108 99.7631 23.108C99.1151 23.108 98.5311 23.104 98.0111 23.096C97.4911 23.088 96.9591 23.076 96.4151 23.06C95.8791 23.044 95.2631 23.028 94.5671 23.012L94.4231 22.868V6.74L94.5671 6.596C95.2631 6.572 95.8791 6.556 96.4151 6.548C96.9591 6.532 97.4911 6.524 98.0111 6.524C98.5311 6.516 99.1151 6.512 99.7631 6.512C100.179 6.512 100.643 6.556 101.155 6.644C101.675 6.724 102.179 6.856 102.667 7.04C103.155 7.216 103.571 7.448 103.915 7.736C104.627 8.328 105.163 8.996 105.523 9.74C105.883 10.484 106.123 11.284 106.243 12.14C106.371 12.988 106.435 13.876 106.435 14.804ZM103.939 14.804C103.939 14.076 103.891 13.34 103.795 12.596C103.699 11.852 103.507 11.168 103.219 10.544C102.931 9.92 102.507 9.416 101.947 9.032C101.395 8.648 100.663 8.456 99.7511 8.456C99.2311 8.456 98.7511 8.456 98.3111 8.456C97.8711 8.448 97.3711 8.44 96.8111 8.432V21.152C97.3711 21.152 97.8711 21.156 98.3111 21.164C98.7511 21.164 99.2311 21.164 99.7511 21.164C100.663 21.164 101.395 20.972 101.947 20.588C102.507 20.204 102.931 19.7 103.219 19.076C103.507 18.452 103.699 17.768 103.795 17.024C103.891 16.272 103.939 15.532 103.939 14.804ZM120.079 20.972C120.079 21.716 119.963 22.244 119.731 22.556C119.507 22.868 119.095 23.024 118.495 23.024H111.271C110.855 23.024 110.523 22.892 110.275 22.628C110.027 22.356 109.903 21.988 109.903 21.524V6.764L110.059 6.608H119.635C119.667 6.792 119.687 6.964 119.695 7.124C119.703 7.284 119.707 7.432 119.707 7.568C119.707 7.696 119.691 7.864 119.659 8.072C119.635 8.272 119.591 8.46 119.527 8.636H113.731C113.555 8.636 113.331 8.636 113.059 8.636C112.787 8.636 112.511 8.632 112.231 8.624C112.231 8.944 112.235 9.208 112.243 9.416C112.251 9.616 112.255 9.872 112.255 10.184V13.736C112.535 13.728 112.807 13.724 113.071 13.724C113.335 13.716 113.555 13.712 113.731 13.712H118.339C118.379 13.88 118.407 14.056 118.423 14.24C118.447 14.424 118.459 14.584 118.459 14.72C118.459 14.856 118.447 15.016 118.423 15.2C118.407 15.376 118.379 15.548 118.339 15.716H113.731C113.555 15.716 113.335 15.716 113.071 15.716C112.807 15.708 112.535 15.704 112.255 15.704V19.88C112.255 20.08 112.251 20.268 112.243 20.444C112.235 20.62 112.231 20.812 112.231 21.02C112.463 21.004 112.703 20.992 112.951 20.984C113.207 20.976 113.487 20.972 113.791 20.972H120.079Z" fill="white"/>
</svg>
